<?xml version="1.0" encoding="UTF-8"?>
<svg id="Layer_1" data-name="Layer 1" xmlns="http://www.w3.org/2000/svg" viewBox="0 0 328.93 361.21">
  <defs>
    <style>
      .cls-1 {
        fill: #92693c;
      }

      .cls-2 {
        fill: #5f3814;
      }

      .cls-3 {
        fill: #fff;
        fill-rule: evenodd;
      }
    </style>
  </defs>
  <path class="cls-1" d="m48.69,144.65c.92,10.66,2.45,20.72,4.3,31.11,2.96,14.38,7.59,30.15,14.45,45.29,15.31,38.59,53.29,66.72,97.22,66.71,45.39,0,84.45-30.27,98.64-70.81,5.43-12.85,9.4-26.31,12.08-38.69,2.27-12.6,3.85-23.38,4.69-33.12l.04-1.12c.05-.87.08-1.84.08-2.73,0-20.96-13.09-38.85-31.86-45.71-23.99-9.14-49.58-14.55-75.58-15.49-2.47-.17-5.58-.3-8.07-.29-2.51,0-5.67.13-8.16.3-27.15,1-53.5,6.64-77.73,16.08-17.81,7.55-30.24,24.91-30.24,45.12,0,1.12.17,2.22.13,3.34Zm-25.82.77l-.16-1.73C11.06,141.16,0,136.56,0,122.2,0,119.01.71,116.22,2.01,113.31c.54-1.74,1.56-3.09,2.82-4.36,2.2-2.11,4.22-3.8,6.82-5.58,42.3-30.25,91.52-47.02,143.54-48.91,3.09-.22,6.36-.34,9.5-.34,3.1,0,6.33.12,9.38.34,54.19,1.93,104.51,20.47,145.46,50.48.67.44,1.55,1.1,2.16,1.62,2.29,1.83,3.87,3.92,4.46,5.26,1.66,2.98,2.78,6.79,2.78,10.39,0,14.37-11.06,18.96-22.71,21.49-2.66,29.26-7.46,55.37-18.98,82.56-17.68,50.61-65.94,87.18-122.55,87.19-54.86,0-101.87-34.28-120.89-82.44-12.58-27.74-18.17-55.38-20.92-85.58Z"/>
  <g>
    <path class="cls-2" d="m55,184.57c-.43-1.74-.83-3.46-1.21-5.16-4.83.61-9.69.19-12.9-1.67l-.11-.06c-.81-.48-1.55-.96-2.26-1.45l-.76-.52c-2.99-2.06-5.73-3.9-11.58-4.06.64,3.85,1.34,7.66,2.14,11.45,2.95.28,5.99.53,9.13.73,7.44.48,13.12.71,17.56.75Z"/>
    <path class="cls-2" d="m287.15,180.32l.29.05c4.14.68,8.6,1.32,13.33,1.89.71-3.48,1.36-6.99,1.94-10.52-.65.05-1.33.11-2.04.19-8.97,1.04-16.46,1.01-24.05-.76-.39,2.3-.79,4.65-1.23,7.08-.02.09-.04.19-.06.28,2.31.26,4.76.59,7.39,1.02,1.44.26,2.91.51,4.43.76Z"/>
    <path class="cls-2" d="m295.8,202.29c1.45-4.91,2.72-9.83,3.84-14.77-.72.04-1.45.08-2.19.13-8.48.5-16.76,1.07-24.74,1.65-1.72,6.42-3.77,12.98-6.18,19.48.53-.13,1.05-.26,1.55-.39,3.09-.8,13.92-3.16,27.72-6.09Z"/>
    <path class="cls-2" d="m86.55,252.05c-1.69-1.91-3.31-3.89-4.86-5.92-11.07-1.07-20.98-3.97-28.43-7.78-2.36-1.21-5.03-2.35-7.8-3.38,1.61,3.71,3.4,7.32,5.33,10.84,7.8,2.67,12.81,5.29,26.11,5.59,3.68.08,6.79.3,9.66.64Z"/>
    <path class="cls-2" d="m53.51,220.88c-14.4.6-15.81,4.88-3.47,10.93,9.02,4.42,17.98,6.28,26.12,7.37.24.04.46.06.7.09-3.45-5.35-6.43-11.01-8.87-16.93-4.38-1.07-9.15-1.68-14.48-1.46Z"/>
    <path class="cls-2" d="m51.81,168.84c-.4-2.43-.77-4.86-1.13-7.29-9.65-.25-18.84-1.34-26.46-3.51.34,2.79.72,5.55,1.12,8.3,7.59,1.64,16.56,2.47,26.47,2.5Z"/>
    <path class="cls-2" d="m183.93,79.6c-.8.32-1.59.65-2.38.99,16.47,1.23,32.71,4.24,48.43,8.83,2-.33,4.11-.63,6.32-.88,8.27-.86,13.81-.98,22.94-.65.47.02.94.05,1.41.07,12.47,1.28,24.05,1.17,34.08.88-4.38-2.5-8.83-4.88-13.37-7.14-8.1.29-15.98-.34-21.13-.91l-.26-.04c-1.67-.28-1.99-3.8,1.23-3.46,3.85.55,8.28.89,13.03.97-7.99-3.68-16.21-6.96-24.62-9.84h-.02c-16.53-2.42-32.65.7-40.77,2.99-7.33,1.86-15.62,4.49-24.9,8.17Z"/>
    <path class="cls-2" d="m101.02,70.12c-6.91,1.84-21.57,3.82-34.1,2.97-3.34,1.34-6.65,2.75-9.94,4.23,14.69,2.06,45.85.1,57.48-4.14,12.73-4.64,23.11-6.17,36.23-5.41,13.11.76,13.55-7.32-4.2-8.85-9.4-.81-14.67-.67-20.24-1.83-6.86,1-13.65,2.29-20.37,3.82,2.37,4.44-.69,8.1-4.85,9.21Z"/>
    <path class="cls-2" d="m6.49,136.96c4.05,3.34,9.56,5.21,15.3,6.52,7.59-1.21,16.78-2.24,26.78-2.39,0-2.11.17-4.19.45-6.23-13.75-.56-32,.77-42.53,2.11Z"/>
    <path class="cls-2" d="m232.5,289.28c-12.38-5.34-30.75-.96-41.53,1.41-10.71,2.35-27.81,2.54-45.1,0-16.66-2.44-30.47-3.21-51.55,1.95,14.85,9.62,31.77,16.3,49.95,19.19,7.52-2.32,16.33-5.03,32.85-6.43,10-.85,19.6-.51,30.05.84,10.93-3.81,21.19-9.03,30.57-15.46-1.71-.49-3.45-1-5.24-1.5Z"/>
    <path class="cls-2" d="m4.83,108.95c-1.27,1.27-2.28,2.63-2.82,4.36C.71,116.22,0,119.01,0,122.2c0,3.05.52,5.63,1.42,7.87,11.91-.26,27.55-1.85,49.63-4.02,2.49-7.47,6.74-14.15,12.29-19.56-10.97-1.81-18.17-7.15-39.78-10-.51-.07-.99-.12-1.47-.18-3.52,2.28-7.01,4.61-10.45,7.06-2.6,1.78-4.62,3.47-6.82,5.58Z"/>
    <path class="cls-2" d="m286.59,136.98c-2.4.31-4.54.63-6.52.92.08,1.12.13,2.25.13,3.39,0,.88-.03,1.85-.08,2.73l-.04,1.12c-.41,4.77-1.01,9.79-1.77,15.15,6.56,1.78,14.78,3.7,25.3,5.65.38-2.6.73-5.22,1.06-7.85-3.28-.92-6.31-2.02-8.92-3.35-7.38-3.79-13.62-7.7,1.78-10.5,4.27-.77,9.25-1.53,14.7-2.12,4.95-1.55,9.42-3.79,12.48-7.37-13.09-.16-28.74,1.04-38.13,2.24Z"/>
    <path class="cls-2" d="m97.73,81.26c-21.17,5.14-31.8,2.57-48.5-.3-4.79,2.35-9.52,4.82-14.17,7.46,5.44.16,9.85.78,17.7,2.21,9.48,1.73,22.67,2.27,36.68,1.71,13.52-4.54,27.61-7.92,42.07-9.99-10.02-3.1-18.44-4.81-33.77-1.09Z"/>
    <path class="cls-2" d="m96.84,285.04c3.81-.12,7.19-.19,9.98-.19,12.62,0,21.55-.32,37.06.76-7.48-1.56-14.69-3.92-21.51-7.01-5.27.21-10.82.47-16.7.8-9.29.52-19.07.42-28.74-.25,2.46,2.26,5,4.42,7.63,6.49,4.73-.24,8.18-.37,11.02-.46.62-.02,1.04-.07,1.27-.13Z"/>
    <path class="cls-2" d="m61,204.86c-.49-1.39-.95-2.78-1.4-4.17-8.72.05-17.5.76-26.32,2.09.42,1.4.85,2.79,1.29,4.19,8.09-1.39,16.97-2.26,26.43-2.11Z"/>
    <path class="cls-2" d="m164.69,54.12c-2.56,0-5.18.1-7.74.25,1.9.76,3.88,1.71,5.95,2.95,12.91,7.7,26.45,8.96,40.61,3.75,2.52-.93,4.59-1.9,6.4-2.85-11.71-2.05-23.68-3.33-35.84-3.76-3.05-.21-6.27-.34-9.38-.34Z"/>
    <path class="cls-2" d="m217.29,279.22c5.62,0,10.54,2.96,12.99,4.22,3.34,1.79,6.82,3.71,11,4.84,12.94-9.52,24.07-21.36,32.75-34.92-3.8-.95-8.24-1.48-14.14-1.51h-.53c-6.92.03-13.02.86-18.47,2.15-16.92,18.23-40.17,30.62-66.05,33.23,13.37-.45,24.39-2.93,35.4-6.74,2.59-.9,4.91-1.27,7.04-1.27Z"/>
    <path class="cls-2" d="m84.87,66.65c3.39-.34,5.83-1.1,7.12-2.15-2.38.68-4.75,1.4-7.12,2.15Z"/>
    <path class="cls-2" d="m261.1,242.53h.09s.08.02.08.02h.08s.09.02.09.02h.08s.09.02.09.02h.09s.09.02.09.02h.09s.08.02.08.02h.09s.09.02.09.02h.08s.09.02.09.02h.09s.09.02.09.02c2.66.31,5.45.74,8.37,1.32,2.47.52,5,1.17,7.57,1.95,1.6-2.91,3.09-5.88,4.47-8.91-.09-.02-.16-.03-.25-.05-16.71-3.15-26.15-12.26-10.31-18.01,4-1.45,11.1-4.48,20.51-7.41.58-1.68,1.13-3.37,1.66-5.05-11.18,2.39-21.02,4.64-29.7,6.75-.49,1.23-.98,2.47-1.5,3.69-3.15,9.01-7.54,17.51-12.95,25.29,3.45-.11,7.02-.05,10.74.28Z"/>
    <path class="cls-2" d="m259.94,101.15c-.3-.03-.58,0-.87-.01,9.75,6.67,16.88,16.76,19.74,28.54,5.68-.05,11.78-.7,20.13-1.4,3.51-.3,16.78-1.36,29.69-2.4.18-1.16.3-2.36.3-3.68,0-3.6-1.12-7.41-2.78-10.39-.58-1.34-2.17-3.43-4.46-5.26-.61-.51-1.49-1.18-2.16-1.62-3.67-2.69-7.41-5.28-11.23-7.78-1.43-.23-2.91-.46-4.49-.66-25.06-3.3-23.72,5.78-43.87,4.66Z"/>
    <path class="cls-2" d="m57.88,195.15c-.67-2.24-1.3-4.47-1.88-6.69-7.99.37-16.56.58-26.51-.04.81,3.51,1.7,7,2.67,10.47,9.67-1.81,18.11-3.01,25.72-3.75Z"/>
    <path class="cls-2" d="m35.7,210.46c.9,2.67,1.87,5.33,2.88,7.99,7.4-1.81,16.55-3.32,26.83-2.1-.95-2.26-1.87-4.54-2.73-6.81-10.93-1.36-19.72-.54-26.99.92Z"/>
    <path class="cls-2" d="m94.41,260.07c-4.52-.92-8.72-1.6-13.94-1.6-7.02,0-16.29-2.17-25.18-5.06,2.62,4.09,5.47,8.02,8.52,11.78,17.06,2.41,30.03,6.87,48.92,8.42-6.59-3.85-12.73-8.4-18.32-13.54Z"/>
    <path class="cls-2" d="m285.16,231.73c.73-1.81,1.42-3.63,2.07-5.48,1.28-3.01,2.46-6.01,3.57-9-9.97,3.7-18.04,10.73-5.64,14.48Z"/>
  </g>
  <path class="cls-3" d="m12.68,121.52c0-4.63,3.76-8.39,8.39-8.39s8.39,3.76,8.39,8.39-3.76,8.39-8.39,8.39-8.39-3.76-8.39-8.39Z"/>
  <path class="cls-3" d="m305.21,119.06c0-4.83,3.91-8.74,8.74-8.74s8.74,3.91,8.74,8.74-3.91,8.74-8.74,8.74-8.74-3.91-8.74-8.74Z"/>
</svg>