<?xml version="1.0" encoding="UTF-8"?>
<svg id="Layer_1" data-name="Layer 1" xmlns="http://www.w3.org/2000/svg" viewBox="0 0 328.93 361.21">
  <defs>
    <style>
      .cls-1 {
        fill: #fff;
        fill-rule: evenodd;
      }
    </style>
  </defs>
  <path d="m106.09,20.77c2.16-1.76,4.35-3.43,6.67-4.99C127.48,5.82,145.33,0,164.51,0s37,5.82,51.74,15.78c2.98,2.01,5.82,4.19,8.53,6.53,45.62,38.22,86.39,125.88,84.13,195.55,0,79.26-64.65,143.36-144.4,143.36S20.35,297.34,20.12,218.46C17.79,147.24,59.72,58.14,106.09,20.77Z"/>
  <path class="cls-1" d="m68.19,183.01c0-53.2,43.12-96.32,96.32-96.32,53.2,0,96.33,43.13,96.33,96.33,0,53.2-43.12,96.32-96.32,96.32-53.2,0-96.33-43.13-96.33-96.33Z"/>
</svg>