<?xml version="1.0" encoding="UTF-8"?>
<svg id="Head" xmlns="http://www.w3.org/2000/svg" viewBox="0 0 328.93 361.21">
  <path d="m224.78,22.31c-2.71-2.33-5.56-4.51-8.53-6.53C201.51,5.82,183.69,0,164.51,0s-37.03,5.82-51.76,15.78c-2.31,1.56-4.51,3.23-6.67,4.99C59.72,58.14,17.79,147.24,20.12,218.46c.23,78.88,64.79,142.75,144.39,142.75s144.4-64.1,144.4-143.36c2.27-69.66-38.51-157.32-84.13-195.55Zm-60.32,257.08c-53.23,0-96.37-43.14-96.37-96.37,0-53.23,43.15-96.38,96.38-96.38,53.23,0,96.37,43.14,96.37,96.37,0,53.23-43.15,96.38-96.38,96.38Z"/>
</svg>